<svg aria-hidden="true" style="position: absolute; width: 0; height: 0; overflow: hidden;" version="1.1" xmlns="http://www.w3.org/2000/svg" xmlns:xlink="http://www.w3.org/1999/xlink">
<defs>
<symbol id="icon-fingerprint" viewBox="0 0 32 32">
<path stroke-linejoin="round" stroke-linecap="round" stroke-miterlimit="4" stroke-width="2.6588" d="M25.125 9.306c1.202 1.996 1.716 4.331 1.462 6.647v1.329c-0.002 1.4 0.365 2.775 1.064 3.988"></path>
<path stroke-linejoin="round" stroke-linecap="round" stroke-miterlimit="4" stroke-width="2.6588" d="M10.635 14.623c0-1.41 0.56-2.763 1.557-3.76s2.35-1.557 3.76-1.557c1.41 0 2.763 0.56 3.76 1.557s1.557 2.35 1.557 3.76v1.329c0 2.876 0.933 5.675 2.659 7.976"></path>
<path stroke-linejoin="round" stroke-linecap="round" stroke-miterlimit="4" stroke-width="2.6588" d="M15.953 14.623v2.659c-0.004 3.801 1.156 7.513 3.323 10.635"></path>
<path stroke-linejoin="round" stroke-linecap="round" stroke-miterlimit="4" stroke-width="2.6588" d="M10.635 19.941c0.325 2.778 1.135 5.478 2.393 7.976"></path>
<path stroke-linejoin="round" stroke-linecap="round" stroke-miterlimit="4" stroke-width="2.6588" d="M6.514 25.258c-0.897-3.017-1.301-6.16-1.196-9.306v-1.329c-0.005-1.869 0.483-3.707 1.414-5.328s2.273-2.967 3.891-3.904c1.618-0.937 3.454-1.431 5.323-1.432s3.706 0.49 5.325 1.425"></path>
</symbol>
<symbol id="icon-home-secure" viewBox="0 0 36 32">
<path stroke-linejoin="round" stroke-linecap="round" stroke-miterlimit="4" stroke-width="2.7080" d="M1.481 11.411l16.248-9.929 16.248 9.929"></path>
<path stroke-linejoin="round" stroke-linecap="round" stroke-miterlimit="4" stroke-width="2.7080" d="M30.367 17.729v11.554c0 0.598-0.485 1.083-1.083 1.083h-23.108c-0.598 0-1.083-0.485-1.083-1.083v-11.554"></path>
<path stroke-linejoin="round" stroke-linecap="round" stroke-miterlimit="4" stroke-width="2.7080" d="M21.34 15.924h0.722c0.598 0 1.083 0.485 1.083 1.083v5.055c0 0.598-0.485 1.083-1.083 1.083h-8.666c-0.598 0-1.083-0.485-1.083-1.083v-5.055c0-0.598 0.485-1.083 1.083-1.083h0.722M21.34 15.924v-3.611c0-1.204-0.722-3.611-3.611-3.611s-3.611 2.407-3.611 3.611v3.611M21.34 15.924h-7.221"></path>
</symbol>
<symbol id="icon-screen-share" viewBox="0 0 32 32">
<path stroke-linejoin="round" stroke-linecap="round" stroke-miterlimit="4" stroke-width="2.6588" d="M27.917 15.953v3.988c0 0.353-0.14 0.691-0.389 0.94s-0.587 0.389-0.94 0.389h-21.27c-0.353 0-0.691-0.14-0.94-0.389s-0.389-0.587-0.389-0.94v-13.294c0-0.353 0.14-0.691 0.389-0.94s0.587-0.389 0.94-0.389h11.964"></path>
<path stroke-linejoin="round" stroke-linecap="round" stroke-miterlimit="4" stroke-width="2.6588" d="M9.306 26.588h13.294"></path>
<path stroke-linejoin="round" stroke-linecap="round" stroke-miterlimit="4" stroke-width="2.6588" d="M11.964 21.27v5.317"></path>
<path stroke-linejoin="round" stroke-linecap="round" stroke-miterlimit="4" stroke-width="2.6588" d="M19.941 21.27v5.317"></path>
<path stroke-linejoin="round" stroke-linecap="round" stroke-miterlimit="4" stroke-width="2.6588" d="M22.599 5.317h5.318v5.318"></path>
<path stroke-linejoin="round" stroke-linecap="round" stroke-miterlimit="4" stroke-width="2.6588" d="M21.27 11.964l6.647-6.647"></path>
</symbol>
</defs>
</svg>
